<svg xmlns="http://www.w3.org/2000/svg"  viewBox="0 0 317239 333333" shape-rendering="geometricPrecision" text-rendering="geometricPrecision" image-rendering="optimizeQuality" fill-rule="evenodd" clip-rule="evenodd"><path d="M83821 177050c-2020 1661-5005 1370-6666-650s-1370-5005 650-6666c9691-8000 25058-5238 38252-2866 5531 994 10630 1911 14147 1785 2615-92 4810 1953 4902 4568s-1953 4810-4568 4902c-4500 160-10090-844-16153-1934-11199-2013-24243-4358-30564 861zm-40939-48484c35999 36593 91694-11342 145922-24770 30777-7622 47328 44085 87056 25210l3708 40924c24685-5294 7137 66809-14307 63029-7035 22035-9732 37620-21263 52208-21604 27332-56535 41290-84535 40708-26434-548-60065-14288-81597-39496-13246-15511-17540-32552-25782-56363-22810 6428-38112-66721-13294-60457l4092-40993zm188456 179556c119010-9063 98865-171616 32915-260282C210583-24319 86581-4299 48686 38793 17780 73943 3354 121956 0 176189v24741c0 77708 26091 92751 88257 105659 7305 5758 15207 10618 23319 14544 15959 7724 32863 11873 47741 12181 15774 328 33513-3592 50101-11579 7624-3672 15031-8215 21919-13613zm2143-115113c2226 720 3517 3354 2883 5884-633 2530-2952 3997-5178 3277-4527-1480-9005-2380-13435-2709 345 932 534 1941 534 2993 0 4761-3860 8621-8621 8621s-8621-3860-8621-8621c0-536 49-1060 143-1569-1464 361-2927 783-4388 1267-2217 730-4535-721-5178-3240s634-5154 2851-5884c6407-2122 12870-3199 19388-3207 6535-8 13075 1048 19621 3188zM86701 203022c-2190 854-4574-472-5326-2961-751-2489 416-5198 2606-6052 6546-2559 13124-3742 19728-3694 6552 48 13083 1321 19593 3675 2199 792 3417 3459 2720 5958s-3044 3883-5244 3091c-1440-521-2880-981-4318-1380 113 556 172 1131 172 1719 0 4761-3859 8622-8621 8622-4761 0-8621-3860-8621-8622 0-1226 257-2393 718-3449-4451 328-8920 1338-13406 3091zm153172-34190c2020 1661 2311 4646 650 6666s-4646 2311-6666 650c-6322-5219-19365-2874-30564-861-6063 1090-11653 2094-16154 1934-2615-92-4659-2287-4568-4902 92-2615 2287-4660 4902-4568 3518 126 8617-791 14148-1785 13194-2372 28561-5134 38252 2866zm-94228 69648c-1938-1763-2079-4765-315-6703 1763-1938 4765-2079 6703-316 2322 2117 4488 3125 6506 3102 2056-23 4285-1109 6670-3176 1979-1713 4972-1496 6684 483 1713 1979 1496 4972-483 6684-4102 3554-8364 5428-12798 5478-4471 51-8798-1752-12967-5553zm-18399 29067c-2041-1630-2373-4607-743-6647 1630-2041 4607-2373 6647-743 9480 7581 18339 11306 26591 11274 8044-31 15788-3723 23237-10978 1876-1825 4878-1783 6703 93s1783 4878-93 6703c-9261 9020-19205 13610-29847 13652-10434 40-21263-4373-32496-13355z" fill-rule="nonzero"/></svg>